<svg width="128" height="128" viewBox="0 0 128 128" fill="none" xmlns="http://www.w3.org/2000/svg">
  <rect width="128" height="128" rx="28" fill="#061A33"/>
  <path d="M28 45C28 37.8 33.8 32 41 32H83C90.2 32 96 37.8 96 45V52H28V45Z" fill="#10C8C9"/>
  <path d="M38 52H90C97.7 52 104 58.3 104 66V88C104 95.7 97.7 102 90 102H38C30.3 102 24 95.7 24 88V66C24 58.3 30.3 52 38 52Z" fill="#071A33"/>
  <path d="M24 52H47C56.5 52 64 59.7 64 69.1C64 59.7 71.5 52 81 52H104" stroke="white" stroke-width="7" stroke-linecap="round" stroke-linejoin="round"/>
  <rect x="42" y="39" width="19" height="14" rx="4" fill="white" fill-opacity=".9"/>
  <rect x="74" y="42" width="25" height="6" rx="3" fill="white" fill-opacity=".9"/>
  <rect x="74" y="53" width="23" height="6" rx="3" fill="white" fill-opacity=".9"/>
</svg>
